<?xml version="1.0" encoding="utf-8"?>
<!-- Generator: Adobe Illustrator 16.0.0, SVG Export Plug-In . SVG Version: 6.00 Build 0)  -->
<!DOCTYPE svg PUBLIC "-//W3C//DTD SVG 1.1//EN" "http://www.w3.org/Graphics/SVG/1.1/DTD/svg11.dtd">
<svg version="1.1" id="Layer_1" xmlns="http://www.w3.org/2000/svg" xmlns:xlink="http://www.w3.org/1999/xlink" x="0px" y="0px"
	 width="512px" height="512px" viewBox="0 0 512 512" enable-background="new 0 0 512 512" xml:space="preserve">
<g>
	<path fill="#4A4941" d="M376.081,172h-5.206v-57c0-63.41-51.591-115-115-115c-63.41,0-115,51.59-115,115v57h-4.707
		c-27.594,0-50.043,22.449-50.043,50.043L85.875,502c0,5.523,4.477,10,10,10h320c5.522,0,10-4.477,10-10l0.25-279.957
		C426.125,194.449,403.676,172,376.081,172z M160.875,115c0-52.383,42.617-95,95-95s95,42.617,95,95v57h-30v-57
		c0-19.785-6.728-36.477-19.453-48.273C289.789,55.941,273.614,50,255.875,50c-17.739,0-33.914,5.941-45.547,16.727
		C197.602,78.523,190.875,95.215,190.875,115v57h-30V115z M300.875,115v57h-90v-57c0-33.215,24.242-45,45-45
		S300.875,81.785,300.875,115z M406.125,484.5h-300V222.043c0-16.566,13.477-30.043,30.043-30.043h239.918
		c16.563,0,30.039,13.477,30.039,30.043V484.5z"/>
	<path fill="#4A4941" d="M188.66,339.188c-2.935-2.477-6.32-4.637-10.005-6.547c-5.737-2.973-21.188-6.315-21.188-14.637
		c0-2.227,1.113-4.121,3.34-5.68c5.762-4.035,15.613-2.684,21.523,0.199c4.555,2.219,9.832,4.026,12.897-1.262
		c1.469-2.535,2.207-4.98,2.207-7.337c0-5.694-5.953-8.934-10.762-10.12c-5.133-1.271-10.547-2-15.84-2
		c-9.445,0-17.513,2.34-24.195,7.02c-6.68,4.68-10.022,11.738-10.022,21.184c0,16.27,14.159,24.953,27.469,30.813
		c5.434,2.396,14.901,6.634,14.906,13.837c0,9.862-14.566,9.922-20.855,7.202c-4.867-2.108-9.262-8.805-14.836-8.805
		c-5.273-0.004-9.09,6.527-9.09,11.228c0,4.456,3.207,8.469,9.625,12.03c6.418,3.563,13.944,5.349,22.59,5.349
		c17.375,0,33.418-10.435,33.418-29.142C199.844,352.406,195.469,344.934,188.66,339.188z"/>
	<path fill="#4A4941" d="M372.813,372.141h-30.477v-73.25c-0.005-5.004-6.56-6.285-10.431-6.285c-3.905,0-10.426,1.224-10.426,6.285
		v85.012c0,4.656,5.234,6.418,9.09,6.418h42.238c4.543,0,6.016-5.438,6.016-9.09C378.823,377.582,377.336,372.141,372.813,372.141z"
		/>
	<path fill="#4A4941" d="M279.66,339.188c-2.935-2.477-6.32-4.637-10.005-6.547c-5.737-2.973-21.188-6.315-21.188-14.637
		c0-2.227,1.113-4.121,3.34-5.68c5.762-4.035,15.613-2.684,21.523,0.199c4.555,2.219,9.832,4.026,12.897-1.262
		c1.469-2.535,2.207-4.98,2.207-7.337c0-5.694-5.953-8.934-10.762-10.12c-5.133-1.271-10.547-2-15.84-2
		c-9.445,0-17.513,2.34-24.195,7.02c-6.68,4.68-10.022,11.738-10.022,21.184c0,16.27,14.159,24.953,27.469,30.813
		c5.434,2.396,14.901,6.634,14.906,13.837c0,9.862-14.566,9.922-20.855,7.202c-4.867-2.108-9.262-8.805-14.836-8.805
		c-5.273-0.004-9.09,6.527-9.09,11.228c0,4.456,3.207,8.469,9.625,12.03c6.418,3.563,13.944,5.349,22.59,5.349
		c17.375,0,33.418-10.435,33.418-29.142C290.844,352.406,286.469,344.934,279.66,339.188z"/>
</g>
</svg>
