<?xml version="1.0" encoding="utf-8"?>
<!-- Generator: Adobe Illustrator 16.0.0, SVG Export Plug-In . SVG Version: 6.00 Build 0)  -->
<!DOCTYPE svg PUBLIC "-//W3C//DTD SVG 1.1//EN" "http://www.w3.org/Graphics/SVG/1.1/DTD/svg11.dtd">
<svg version="1.1" id="Layer_1" xmlns="http://www.w3.org/2000/svg" xmlns:xlink="http://www.w3.org/1999/xlink" x="0px" y="0px"
	 width="1280px" height="800px" viewBox="0 0 1280 800" enable-background="new 0 0 1280 800" xml:space="preserve">
<path fill="#4A4941" d="M490.926,141.468c-2.048-0.441-113.819-24.469-221.354-24.469c-107.611,0-219.471,24.063-221.354,24.47
	c-21.69,4.245-38.063,23.346-38.063,46.279v141.5c0,245.219,236.329,347.737,236.329,347.737h0.049
	c6.813,3.823,14.669,6.015,23.039,6.015c8.373,0,16.226-2.192,23.041-6.015h0.023c0.024,0,236.353-102.52,236.353-347.737v-141.5
	C528.99,164.814,512.617,145.71,490.926,141.468z M427.745,298.756L249.456,477.047c-4.435,4.435-10.424,6.91-16.673,6.91
	c-6.25,0-12.264-2.477-16.674-6.91l-81.434-81.435c-9.221-9.219-9.221-24.124,0-33.344c9.222-9.222,24.126-9.222,33.346,0
	l64.759,64.757l161.618-161.616c9.22-9.222,24.125-9.222,33.346,0C436.968,274.63,436.968,289.537,427.745,298.756z"/>
<g>
	<g enable-background="new    ">
		<path fill="#4A4941" d="M601.573,374.641c-6.362-9.368-9.542-22.369-9.542-39.01V268.1c0-17.057,3.18-30.165,9.542-39.324
			c6.361-9.156,17.516-13.737,33.453-13.737c14.54,0,24.886,4.125,31.039,12.374c6.151,8.25,9.229,20.206,9.229,35.864v10.276
			h-15.102v-9.855c0-8.109-0.629-14.714-1.888-19.819c-1.258-5.102-3.707-9.051-7.342-11.849c-3.637-2.797-8.879-4.196-15.729-4.196
			c-7.413,0-13.074,1.542-16.986,4.617c-3.917,3.077-6.572,7.307-7.969,12.688c-1.4,5.384-2.098,12.269-2.098,20.658v72.357
			c0,13.145,1.994,22.723,5.978,28.733c3.985,6.013,11.012,9.019,21.077,9.019c9.926,0,16.568-3.041,19.926-9.124
			c3.354-6.08,5.033-15.343,5.033-27.788v-11.115h15.102v10.066c0,16.221-3.006,28.733-9.02,37.542
			c-6.013,8.808-16.431,13.212-31.249,13.212C619.089,388.692,607.935,384.008,601.573,374.641z"/>
		<path fill="#4A4941" d="M706.647,375.06c-6.643-9.086-9.962-21.949-9.962-38.59v-70.468c0-16.497,3.356-29.116,10.067-37.857
			c6.71-8.736,17.964-13.107,33.765-13.107c15.521,0,26.635,4.403,33.347,13.212s10.067,21.392,10.067,37.75v70.677
			c0,16.639-3.288,29.467-9.858,38.484c-6.573,9.019-17.759,13.529-33.558,13.529C724.576,388.692,713.286,384.149,706.647,375.06z
			 M761.91,366.774c3.911-6.08,5.87-14.994,5.87-26.739v-76.97c0-11.745-1.923-20.554-5.765-26.426
			c-3.85-5.872-11.012-8.809-21.5-8.809c-10.626,0-17.896,2.904-21.812,8.705c-3.915,5.803-5.87,14.647-5.87,26.53v76.97
			c0,11.886,1.955,20.834,5.87,26.846c3.915,6.012,11.187,9.018,21.812,9.018C750.864,375.898,757.993,372.857,761.91,366.774z"/>
		<path fill="#4A4941" d="M813.078,216.716h15.941l33.557,147.437l34.184-147.437h15.941l4.192,169.878h-13.212l-3.355-135.275
			L867.82,386.594h-10.278L825.452,251.53l-3.354,135.063h-13.212L813.078,216.716z"/>
		<path fill="#4A4941" d="M945.204,216.716h40.689c14.397,0,24.71,3.916,30.936,11.743c6.219,7.832,9.33,18.95,9.33,33.347
			c0,13.145-3.252,23.841-9.752,32.089c-6.501,8.25-16.604,12.374-30.306,12.374h-24.958v80.327h-15.939V216.716L945.204,216.716z
			 M981.489,294.314c10.486,0,17.934-2.411,22.337-7.236c4.404-4.823,6.608-13.245,6.608-25.272c0-8.809-0.841-15.552-2.519-20.238
			c-1.678-4.683-4.547-8.003-8.6-9.963c-4.058-1.957-9.927-2.936-17.617-2.936h-20.555v65.644L981.489,294.314L981.489,294.314z"/>
		<path fill="#4A4941" d="M1046.5,216.716h38.382c15.235,0,26.074,3.67,32.506,11.009c6.43,7.341,9.647,18.073,9.647,32.193
			c0,10.769-1.75,19.646-5.243,26.636c-3.498,6.994-9.579,11.398-18.245,13.213l26.006,86.827h-15.521l-24.958-83.471h-26.633
			v83.471H1046.5V216.716z M1084.043,291.38c10.203,0,17.334-2.517,21.391-7.552c4.053-5.034,6.083-13.001,6.083-23.909
			c0-11.043-1.925-19.012-5.77-23.909c-3.846-4.894-10.94-7.34-21.284-7.34h-22.021v62.709L1084.043,291.38L1084.043,291.38z"/>
		<path fill="#4A4941" d="M1180.516,216.716h16.777l36.072,169.878h-15.729l-8.39-45.512h-40.477l-8.601,45.512h-15.52
			L1180.516,216.716z M1207.151,329.549l-18.037-91.65l-18.036,91.65H1207.151z"/>
	</g>
	<g enable-background="new    ">
		<path fill="#4A4941" d="M602.203,572.061c-7.899-8.596-12.13-22.265-12.688-40.999l32.085-4.823
			c0.139,10.769,1.433,18.488,3.881,23.175c2.444,4.685,6.115,7.025,11.009,7.025c6.294,0,9.44-4.122,9.44-12.373
			c0-6.57-1.505-12.234-4.509-16.989c-3.011-4.749-7.729-9.856-14.157-15.308l-14.68-12.794
			c-7.552-6.57-13.249-13.108-17.095-19.608c-3.847-6.502-5.768-14.714-5.768-24.646c0-14.262,4.228-25.233,12.688-32.926
			c8.458-7.688,20.099-11.535,34.919-11.535c16.078,0,27.02,4.687,32.82,14.051c5.801,9.369,8.914,20.765,9.335,34.187
			l-32.299,3.983c-0.281-8.808-1.084-15.17-2.411-19.086c-1.331-3.91-4.231-5.8-8.705-5.66c-3.219,0-5.697,1.361-7.445,4.089
			c-1.75,2.728-2.623,5.766-2.623,9.124c0,6.011,1.362,10.94,4.089,14.785c2.726,3.846,6.815,8.217,12.271,13.108l14.05,12.373
			c8.39,7.55,14.892,15.241,19.508,23.07c4.611,7.833,6.918,17.128,6.918,27.895c0,7.97-1.854,15.204-5.557,21.706
			c-3.709,6.5-8.913,11.639-15.627,15.414c-6.71,3.774-14.47,5.663-23.278,5.663C622.16,584.96,610.101,580.662,602.203,572.061z"/>
		<path fill="#4A4941" d="M701.088,412.564h76.341v25.588H738.63v42.153h29.57v26.006h-29.57v50.757h39.22v25.375h-76.762V412.564
			L701.088,412.564z"/>
		<path fill="#4A4941" d="M803.224,569.649c-7.132-10.204-10.696-24.676-10.696-43.411v-57.046c0-19.155,3.88-33.767,11.639-43.833
			c7.761-10.065,20.867-15.101,39.324-15.101c17.754,0,30.48,4.335,38.168,13.003c7.69,8.669,11.535,20.904,11.535,36.703v10.903
			h-36.7v-13.842c0-6.711-0.771-11.777-2.31-15.205c-1.538-3.423-4.965-5.14-10.277-5.14c-5.452,0-8.983,1.888-10.589,5.662
			c-1.608,3.775-2.412,9.02-2.412,15.73v78.646c0,6.713,1.013,11.99,3.042,15.836c2.024,3.849,5.695,5.767,11.01,5.767
			c9.785,0,14.682-7.339,14.682-22.021v-19.925h-15.311v-22.021h49.077v88.084h-24.75l-2.094-14.052
			c-5.317,11.048-14.473,16.568-27.477,16.568C822.309,584.96,810.353,579.856,803.224,569.649z"/>
		<path fill="#4A4941" d="M935.767,578.772c-7.412-4.121-12.618-10.204-15.624-18.245c-3.008-8.039-4.508-18.278-4.508-30.726
			V412.563h37.122v122.898c0,6.854,0.872,12.307,2.622,16.361c1.746,4.058,5.274,6.08,10.59,6.08c5.311,0,8.81-2.022,10.486-6.08
			c1.678-4.056,2.517-9.507,2.517-16.361V412.563h37.33v117.239c0,12.446-1.54,22.687-4.614,30.726
			c-3.077,8.041-8.283,14.124-15.624,18.245c-7.341,4.125-17.376,6.188-30.095,6.188
			C953.242,584.96,943.176,582.897,935.767,578.772z"/>
		<path fill="#4A4941" d="M1040.211,412.564h46.769c18.594,0,32.646,3.289,42.155,9.858c9.506,6.574,14.263,18.246,14.263,35.022
			c0,11.323-1.47,20.344-4.405,27.057c-2.936,6.711-8.389,11.953-16.358,15.729l23.278,82.212h-38.799l-18.665-76.132h-10.697
			v76.132h-37.54V412.564L1040.211,412.564z M1088.239,484.711c7.551,0,12.824-1.992,15.835-5.977
			c3.004-3.986,4.509-9.964,4.509-17.934c0-7.688-1.398-13.455-4.194-17.303c-2.797-3.843-7.623-5.767-14.471-5.767h-12.162v46.979
			L1088.239,484.711L1088.239,484.711z"/>
		<path fill="#4A4941" d="M1189.953,412.564h42.783l31.669,169.879h-34.604l-5.662-35.863h-24.959l-5.871,35.863h-35.443
			L1189.953,412.564z M1220.574,524.139l-9.021-66.273l-9.02,66.273H1220.574z"/>
	</g>
</g>
</svg>
